P2
# 8-bit pgm gray
92 91
255
  0   0   0   0   0   0   0   0   0   0   0   0 222 255 255 255 255   0   0   0   0   0   0   0
  0   0   0   0   0   0   0   0  74 164 216 209 176 112   0   0   0   0   0   0   0   0   0   0
  0   0   0   0   0   0   0   0   0   0   0   0   0   0   0   0   0  68 221 255 255 255 255 255
255 255 244  57   0   0   0   0   0   0   0   0   0   0   0   0   0   0   0   0
  0   0   0   0   0   0   0   0   0   0   0   0 136 255 255 255 255   0   0   0   0   0   0   0
  0   0   0   0   0   0   0   0 135 194 253 249 180  32   0   0   0   0   0   0   0   0   0   0
  0   0   0   0   0   0   0   0   0   0   0   0   0   0   0   0  59 130 254 255 255 255 255 255
255 255 255 255 255 255 255 229   0   0   0   0   0   0   0   0   0   0   0   0
  0   0   0   0   0   0   0   0   0   0   0   0   0 255 255 255 255   0   0   0   0   0   0   0
  0   0   0   0   0   0   0 213 236 255 255 255 255  69   0   0   0   0   0   0   0   0   0   0
  0   0   0   0   0   0   0   0   0   0   0   0   0   0   0   0 124 248 255 255 255 255 255 255
255 255 255 255 255 255 255 255 255 255 255 188   0   0   0   0   0   0   0   0
  0   0   0   0   0   0   0   0   0   0   0   0   0 255 255 255 255 130   0   0   0   0   0   0
  0   0   0   0   0   0   0 220 255 255 255 255 255 192   0   0   0   0   0   0   0   0   0   0
  0   0   0   0   0   0   0   0   0   0   0   0   0   0   0 103 255 255 255 255 255 255 255 255
255 255 255 255 255 255 255 255 255 255 255 255 255 255 255 228 117 127 108  55
  0   0   0   0   0   0   0   0   0   0   0   0   0 157 255 255 255 118   0   0   0   0   0   0
  0   0   0   0   0 155 225 255 255 255 255 255 255 255 227   0   0   0   0   0   0   0   0   0
  0   0   0   0   0   0   0   0   0   0   0   0   0   0  60 182 255 255 255 255 255 255 255 255
255 255 255 255 255 255 255 255 255 255 255 255 255 255 255 255 255 255 255 255
  0   0   0   0   0   0   0   0   0   0   0   0   0 241 255 255 255 255 168   0   0   0   0   0
  0   0 167 233 255 255 255 255 255 255 255 255 255 255 255 129   0   0   0   0   0   0   0   0
  0   0   0   0   0   0   0   0   0   0   0   0  90 211 227 255 255 255 255 255 255 255 255 255
255 255 255 255 255 255 255 255 255 255 255 255 255 255 255 255 255 255 255 255
  0   0   0   0   0   0   0   0   0   0   0   0 241 255 255 255 255 255 255 255 215 255 255 255
255 255 255 255 255 255 255 255 255 255 255 255 255 255 255 255   0   0   0   0   0   0   0   0
  0   0   0   0   0   0   0   0   0   0   0   0   0 206 255 255 255 255 255 255 255 255 255 255
231 226 204 201 185 213 204 213 201 255 255 255 255 255 255 255 255 255 255 255
  0   0   0   0   0   0   0   0   0  82 241 255 255 255 255 255 255 255 255 255 255 255 255 255
255 255 255 255 255 255 255 255 255 255 255 255 255 255 255 255 255   0   0   0   0   0   0   0
  0   0   0   0   0   0   0   0   0   0   0   0 130 255 255 255 255 255 255 255 255 161   0   0
 76   0   0   0   0   0   0   0   0   0 159 166 196 176 215 250 255 255 255 255
  0   0   0   0   0   0   0   0 228 255 255 255 255 255 255 255 255 255 255 255 255 255 255 255
255 255 255 255 255 255 255 255 255 255 255 255 255 255 255 255 255 255 255   0   0   0   0   0
  0   0 102   0   0   0   0   0   0   0   0 167 254 255 255 255 255 255 255 212 119   0   0   0
  0   0   0   0   0   0   0   0   0   0   0   0   0   0   0   0   0   0   0   0
226 127   0 146 231 219 255 255 255 255 255 255 255 255 255 255 255 255 255 255 255 255 255 255
255 255 255 255 255 255 255 218 221 186 106 179 166 255 255 255 255 255 255 255 255 255 255 255
255 255 255 255 198 184   0 133 205 177 255 255 255 255 255 255 255 255 192   0   0   0   0   0
  0   0   0   0   0   0   0   0   0   0   0   0   0   0   0   0   0   0   0   0
255 255 255 255 255 255 255 255 255 255 255 255 255 255 255 255 255 255 255 255 255 255 255 255
255 255 255 209 209 166  83  49   0   0   0   0   0   0 242 255 255 255 255 255 255 255 255 255
255 255 255 255 255 255 255 255 255 255 255 255 255 255 255 255 255 255 133   0   0   0   0   0
  0   0   0   0   0   0   0   0   0   0   0   0   0   0   0   0   0   0   0   0
255 255 255 255 255 255 255 255 255 255 255 255 255 255 255 255 255 255 255 255 255 255 237 223
236 191  85  44   0   0   0   0   0   0   0   0   0   0   0 148 255 255 255 255 255 255 255 255
255 255 255 255 255 255 255 255 255 255 255 255 255 255 255 255 255 175  98   0   0   0   0   0
  0   0   0   0   0   0   0   0   0   0   0   0   0   0   0   0   0   0   0   0
255 255 255 255 255 255 255 255 255 255 255 255 255 255 255 255 255 255 255 255 252 139  66   0
  0   0   0   0   0   0   0   0   0   0   0   0   0   0   0   0 255 255 255 255 255 255 255 255
255 255 255 255 255 255 255 255 255 255 255 255 255 255 155 114   0   0   0   0   0   0   0   0
  0   0   0   0   0   0   0   0   0   0   0   0   0   0   0   0   0   0   0   0
255 255 255 255 255 122   0   0   0 101 255 255 255 255 255 255 255 255 255 199  92   0   0   0
  0   0   0   0   0   0   0   0   0   0   0   0   0   0   0 184 255 255 255 255 255 255 255 255
255 209 142 185 238 255 255 255 255 255 255 255 255 219  53   0   0   0   0   0   0   0   0   0
  0   0   0   0   0   0   0   0   0   0   0   0   0   0   0   0   0   0   0   0
255 255 255 151   0   0   0   0   0   0   0  67 255 255 255 255 255 255 181  57   0   0   0   0
  0   0   0   0   0   0   0   0   0   0   0   0   0   0  67 221 255 255 255 255 255 255 255 108
  0   0   0   0   0   0   0   0 254 255 255 255 255 184   0   0   0   0   0   0   0   0   0   0
  0   0   0   0   0   0   0   0   0   0   0   0   0   0   0   0   0   0   0   0
255 255 155   0   0   0   0   0   0   0   0   0 104 255 255 255 242 181  91   0   0   0   0   0
  0   0   0   0   0   0   0   0   0   0   0   0   0 143 255 255 255 255 255 255 255 177   0   0
  0   0   0   0   0   0   0   0   0 163 255 255 190  49   0   0   0   0   0   0   0   0   0   0
  0   0   0   0   0   0   0   0   0   0   0   0   0   0   0   0   0   0   0   0
255 255 107   0   0   0   0   0   0   0   0   0   0 220 255 255 255 144   0   0   0   0   0   0
  0   0   0   0   0   0   0   0   0   0   0   0  81 255 255 255 255 255 255 255 192 129   0   0
  0   0   0   0   0   0   0   0   0 154 250 241 170   0   0   0   0   0   0   0   0   0   0   0
  0   0   0   0   0   0   0   0   0   0   0   0   0   0   0   0   0   0   0   0
255 255  84   0   0   0   0   0   0   0   0   0   0 255 255 255 255 115   0   0   0   0   0   0
  0   0   0   0   0   0   0   0   0   0   0   0 232 255 255 255 255 255 255   0   0   0   0   0
  0   0   0   0   0   0   0   0 138 214 255 254 184   0   0   0   0   0   0   0   0   0   0   0
  0   0   0   0   0   0   0   0   0   0   0   0   0   0   0   0   0   0   0   0
255 255 209   0   0   0   0   0   0   0   0   0 145 255 255 255 255 172   0   0   0   0   0   0
  0   0   0   0   0   0   0   0   0   0 116 193 255 255 255 255 255 248 120   0   0   0   0   0
  0   0   0   0   0   0   0   0 175 255 255 255 131   0   0   0   0   0   0   0   0   0   0   0
  0   0   0   0   0   0   0   0   0   0   0   0   0   0   0   0   0   0   0   0
255 255 138   0   0   0   0   0   0   0   0   0 175 255 255 255 255 255   0   0   0   0   0   0
  0   0   0   0   0   0   0   0   0   0 198 255 255 255 255 255 142   0   0   0   0   0   0   0
  0   0   0   0   0   0   0 159 225 255 255 234  54   0   0   0   0   0   0   0   0   0   0   0
  0   0   0   0   0   0   0   0   0   0   0   0   0   0   0   0   0   0   0   0
255 255 255   0   0   0   0   0   0   0   0  79 255 255 255 255 255 255 255 159   0   0   0   0
  0   0   0   0   0   0   0   0   0 255 255 255 255 255 255 207   0   0   0   0   0   0   0   0
  0   0   0   0   0   0   0 175 255 255 255 190  68   0   0   0   0   0   0   0   0   0   0   0
  0   0   0   0   0   0   0   0   0   0   0   0   0   0   0   0   0   0   0   0
255 255 255 255 162   0   0   0   0 134 199 255 255 255 255 255 255 255 255 255 255 255 255 121
  0   0   0   0   0   0   0 235 255 255 255 255 255 255 255 155   0   0   0   0   0   0   0   0
  0   0   0   0   0   0  71 191 255 255 255 186   0   0   0   0   0   0   0   0   0   0   0   0
  0   0   0   0   0   0   0   0   0   0   0   0   0   0   0   0   0   0   0   0
255 255 255 255 255 255 149  89 145 243 255 255 255 255 255 255 255 255 255 255 255 255 255 255
255 255 255 255 255 255 255 255 255 255 255 255 255 255 255 168   0   0   0   0   0   0   0   0
  0   0   0   0   0   0 172 255 255 255 233 107   0   0   0   0   0   0   0   0   0   0   0   0
  0   0   0   0   0   0   0   0   0   0   0   0   0   0   0   0   0   0   0   0
255 255 255 255 255 255 255 255 255 255 255 255 255 255 255 255 255 255 255 255 255 255 255 255
255 255 255 255 255 255 255 255 255 255 255 255 255 255 255 109   0   0   0   0   0   0   0   0
  0   0   0   0   0 131 255 255 255 255 192  90   0   0   0   0   0   0   0   0   0   0   0   0
  0   0   0   0   0   0   0   0   0   0   0   0   0   0   0   0   0   0   0   0
255 255 255 255 255 255 255 255 255 255 255 255 215  97   0   0   0   0  27 214 255 255 255 255
246 255 255 255 255 255 255 255 255 255 255 255 255 255 255 195   0   0   0   0   0   0   0   0
  0   0   0   0   0 172 255 255 255 255 153   0   0   0   0   0   0   0   0   0   0   0   0   0
  0   0   0   0   0   0   0   0   0   0   0   0   0   0   0   0   0   0   0   0
255 255 255 255 255 255 255 255 255 255 229  50   0   0   0   0   0   0   0   0   0   0   0   0
  0   0 244 255 255 255 255 255 255 255 255 255 255 255 255 255   0   0   0   0   0   0   0   0
  0   0   0   0 105 213 255 255 255 229   0   0   0   0   0   0   0   0   0   0   0   0   0   0
  0   0   0   0   0   0   0   0   0   0   0   0   0   0   0   0   0   0   0   0
251 255 255 255 255 255 255 255 230 168   0   0   0   0   0   0   0   0   0   0   0   0   0   0
  0   0   0   0   0   0 237 255 255 255 255 255 255 255 255 255 255   0   0   0   0   0   0   0
  0   0   0 102 196 255 255 255 255 169   0   0   0   0   0   0   0   0   0   0   0   0   0   0
  0   0   0   0   0   0   0   0   0   0   0   0   0   0   0   0   0   0   0   0
247 255 255 255 255 255 255 203   0   0   0   0   0   0   0   0   0   0   0   0   0   0   0   0
  0   0   0   0   0   0   0   0   0   0 168 255 255 255 255 255 255 255 145   0   0   0   0   0
  0   0   0 186 255 255 255 255 222   0   0   0   0   0   0   0   0   0   0   0   0   0   0   0
  0   0   0   0   0   0   0   0   0   0   0   0   0   0   0   0   0   0   0   0
255 255 255 255 255 255 238 103   0   0   0   0   0   0   0   0   0   0   0   0   0   0   0   0
  0   0   0   0   0   0   0   0   0   0   0   0   0 255 255 255 255 255 255 255   0   0   0   0
  0   0 115 255 255 255 255 255 184   0   0   0   0   0   0   0   0   0   0   0   0   0   0   0
  0   0   0   0   0   0   0   0   0   0   0   0   0   0   0   0   0   0   0   0
255 255 255 255 255 228  63   0   0   0   0   0   0   0   0   0   0   0   0   0   0   0   0   0
  0   0   0   0   0   0   0   0   0   0   0   0   0   0   0 255 255 255 255 255 255 210   0   0
  0   0 195 255 255 255 255 248   0   0   0   0   0   0   0   0   0   0   0   0   0   0   0   0
  0   0   0   0   0   0   0   0   0   0   0   0   0   0   0   0   0   0   0   0
255 255 255 238 182  66   0   0   0   0   0   0   0   0   0   0   0   0   0   0   0   0   0   0
  0   0   0   0   0   0   0   0   0   0   0   0   0   0   0   0 229 255 255 255 255 255 255 255
255 255 255 255 255 255 184   0   0   0   0   0   0   0   0   0   0   0   0   0   0   0   0   0
  0   0   0   0   0   0   0   0   0   0   0   0   0   0   0   0   0   0   0   0
255 255 200 106   0   0   0   0   0   0   0   0   0   0   0   0   0   0   0   0   0   0   0   0
  0   0   0   0   0   0   0   0   0   0   0   0   0   0   0   0   0 244 255 255 255 255 255 255
255 255 255 255 255 255 153   0   0   0   0   0   0   0   0   0   0   0   0   0   0   0   0   0
  0   0   0   0   0   0   0   0   0   0   0   0   0   0   0   0   0   0   0   0
255 223   0   0   0   0   0   0   0   0   0   0   0   0   0   0   0   0   0   0   0   0   0   0
  0   0   0   0   0   0   0   0   0   0   0   0   0   0   0   0   0   0 241 255 255 255 255 255
255 255 255 255 255 165   0   0   0   0   0   0   0   0   0   0   0   0   0   0   0   0   0   0
  0   0   0   0   0   0   0   0   0   0   0   0   0   0   0   0   0   0   0   0
255 186   0   0   0   0   0   0   0   0   0   0   0   0   0   0   0   0   0   0   0   0   0   0
  0   0   0   0   0   0   0   0   0   0   0   0   0   0   0   0   0   0   0 188 255 255 255 255
255 255 255 255 143   0   0   0   0   0   0   0   0   0   0   0   0   0   0   0   0   0   0   0
  0   0   0   0   0   0   0   0   0   0   0   0   0   0   0   0   0   0   0   0
144   0   0   0   0   0   0   0   0   0   0   0   0   0   0   0   0   0   0   0   0   0   0   0
  0   0   0   0   0   0   0   0   0   0   0   0   0   0   0   0   0   0   0   0 221 255 255 255
255 255 255 209   0   0   0   0   0   0   0   0   0   0   0   0   0   0   0   0   0   0   0   0
  0   0   0   0   0   0   0   0   0   0   0   0   0   0   0   0   0   0   0   0
 70   0   0   0   0   0   0   0   0   0   0   0   0   0   0   0   0   0   0   0   0   0   0   0
  0   0   0   0   0   0   0   0   0   0   0   0   0   0   0   0   0   0   0   0  81 255 255 255
255 255 255  65   0   0   0   0   0   0   0   0   0   0   0   0   0   0   0   0   0   0   0   0
  0   0   0   0   0   0   0   0   0   0   0   0   0   0   0   0   0   0   0   0
  0   0   0   0   0   0   0   0   0   0   0   0   0   0   0   0   0   0   0   0   0   0   0   0
  0   0   0   0   0   0   0   0   0   0   0   0   0   0   0   0   0   0   0   0  98 211 255 255
255 255 246   0   0   0   0   0   0   0   0   0   0   0   0   0   0   0   0   0   0   0   0   0
  0   0   0   0   0   0   0   0   0   0   0   0   0   0   0   0   0   0   0   0
  0   0   0   0   0   0   0   0   0   0   0   0   0   0   0   0   0   0   0   0   0   0   0   0
  0   0   0   0   0   0   0   0   0   0   0   0   0   0   0   0   0   0   0   0   0 148 255 255
255 255 242   0   0   0   0   0   0   0   0   0   0   0   0   0   0   0   0   0   0   0   0   0
  0   0   0   0   0   0   0   0   0   0   0   0   0   0   0   0   0   0   0   0
  0   0   0   0   0   0   0   0   0   0   0   0   0   0   0   0   0   0   0   0   0   0   0   0
  0   0   0   0   0   0   0   0   0   0   0   0   0   0   0   0   0   0   0   0  11 235 255 255
255 255 255 109   0   0   0   0   0   0   0   0   0   0   0   0   0   0   0   0   0   0   0   0
  0   0   0   0   0   0   0   0   0   0   0   0   0   0   0   0   0   0   0   0
  0   0   0   0   0   0   0   0   0   0   0   0   0   0   0   0   0   0   0   0   0   0   0   0
  0   0   0   0   0   0   0   0   0   0   0   0   0   0   0   0   0   0  48 137 232 255 255 255
255 255 255 199   0   0   0   0   0   0   0   0   0   0   0   0   0   0   0   0   0   0   0   0
  0   0   0   0   0   0   0   0   0   0   0   0   0   0   0   0   0   0   0   0
  0   0   0   0   0   0   0   0   0   0   0   0   0   0   0   0   0   0   0   0   0   0   0   0
  0   0   0   0   0   0   0   0   0   0   0   0   0   0   0   0   0   0 124 245 255 255 255 255
255 255 255 255 176   0   0   0   0   0   0   0   0   0   0   0   0   0   0   0   0   0   0   0
  0   0   0   0   0   0   0   0   0   0   0   0   0   0   0   0   0   0   0   0
  0   0   0   0   0   0   0   0   0   0   0   0   0   0   0   0   0   0   0   0   0   0   0   0
  0   0   0   0   0   0   0   0   0   0   0   0   0   0   0   0  51 106 195 249 255 255 255 255
255 255 255 255 255 159   0   0   0   0   0   0   0   0   0   0   0   0   0   0   0   0   0   0
  0   0   0   0   0   0   0   0   0   0   0   0   0   0   0   0   0   0   0   0
  0   0   0   0   0   0   0   0   0   0   0   0   0   0   0   0   0   0   0   0   0   0   0   0
  0   0   0   0   0   0   0   0   0   0   0   0   0   0   0  46 212 255 255 255 255 255 255 255
255 255 255 255 255 255 255   0   0   0   0   0   0   0   0   0   0   0   0   0   0   0   0   0
  0   0   0   0   0   0   0   0   0   0   0   0   0   0   0   0   0   0   0   0
  0   0   0   0   0   0   0   0   0   0   0   0   0   0   0   0   0   0   0   0   0   0   0   0
  0   0   0   0   0   0   0   0   0   0   0   0   0   0   0 155 251 255 255 255 255 255 255 255
255 255 255 255 255 255 255 255 255   0   0   0   0   0   0   0   0   0   0   0   0   0   0   0
  0   0   0   0   0   0   0   0   0   0   0   0   0   0   0   0   0   0   0   0
  0   0   0   0   0   0   0   0   0   0   0   0   0   0   0   0   0   0   0   0   0   0   0   0
  0   0   0   0   0   0   0   0   0   0   0   0   0   0  76 224 255 255 255 255 255 255 255 255
255 255 255 255 255 255 255 255 255 255 228   0   0   0   0   0   0   0   0   0   0   0   0   0
  0   0   0   0   0   0   0   0   0   0   0   0   0   0   0   0   0   0   0   0
  0   0   0   0   0   0   0   0   0   0   0   0   0   0   0   0   0   0   0   0   0   0   0   0
  0   0   0   0   0   0   0   0   0   0   0   0   0   0 181 252 255 255 255 255 255 255 255 255
255 255 255 255 255 255 255 255 255 255 255 255 128   0   0   0   0   0   0   0   0   0   0   0
  0   0   0   0   0   0   0   0   0   0   0   0   0   0   0   0   0   0   0   0
  0   0   0   0   0   0   0   0   0   0   0   0   0   0   0   0   0   0   0   0   0   0   0   0
  0   0   0   0   0   0   0   0   0   0   0   0  63  93 195 255 255 255 255 255 255 255 255 255
255 231   0   0   0   0 230 255 255 255 255 255 255 153   0   0   0   0   0   0   0   0   0   0
  0   0   0   0   0   0   0   0   0   0   0   0   0   0   0   0   0   0   0   0
  0   0   0   0   0   0   0   0   0   0   0   0   0   0   0   0   0   0   0   0   0   0   0   0
  0   0   0   0   0   0   0   0   0   0   0   0 131 225 255 255 255 255 255 255 255 255 255 244
169   0   0   0   0   0   0   0 235 255 255 255 255 255 255   0   0   0   0   0   0   0   0   0
  0   0   0   0   0   0   0   0   0   0   0   0   0   0   0   0   0   0   0   0
  0   0   0   0   0   0   0   0   0   0   0   0   0   0   0   0   0   0   0   0   0   0   0   0
  0   0   0   0   0   0   0   0   0   0   0  62 153 221 255 255 255 255 255 255 255 255 255 131
  0   0   0   0   0   0   0   0   0  61 255 255 255 255 255 255 255   0   0   0   0   0   0   0
  0   0   0   0   0   0   0   0   0   0   0   0   0   0   0   0   0   0   0   0
  0   0   0   0   0   0   0   0   0   0   0   0   0   0   0   0   0   0   0   0   0   0   0   0
  0   0   0   0   0   0   0   0   0   0 105 173 235 255 255 255 255 255 255 255 255 162   0   0
  0   0   0   0   0   0   0   0   0   0   0 236 255 255 255 255 255 255 150   0   0   0   0   0
  0   0   0   0   0   0   0   0   0   0   0   0   0   0   0   0   0   0   0   0
  0   0   0   0   0   0   0   0   0   0   0   0   0   0   0   0   0   0   0   0   0   0   0   0
  0   0   0   0   0   0   0   0   0  50 157 230 255 255 255 255 255 255 255 255  83   0   0   0
  0   0   0   0   0   0   0   0   0   0   0   0 195 255 255 255 255 255 255 160   0   0   0   0
  0   0   0   0   0   0   0   0   0   0   0   0   0   0   0   0   0 103 160 235
  0   0   0   0   0   0   0   0   0   0   0   0   0   0   0   0   0   0   0   0   0   0   0   0
  0   0   0   0   0   0   0   0   0 152 228 255 255 255 255 255 255 249 171   0   0   0   0   0
  0   0   0   0   0   0   0   0   0   0   0   0   0   0 255 255 255 255 255 255 250   0   0   0
  0   0   0   0   0   0   0   0   0   0   0   0   0   0   0 132  59 205 229 255
  0   0   0   0   0   0   0   0   0   0   0   0   0   0   0   0   0   0   0   0   0   0   0   0
  0   0   0   0   0   0   0   0 147 230 255 255 255 255 255 255 247 151   0   0   0   0   0   0
  0   0   0   0   0   0   0   0   0   0   0   0   0   0   0  68 255 255 255 255 255 255   0   0
  0   0   0   0   0   0   0   0   0   0   0   0 126 255 208 244 255 255 255 255
  0   0   0   0   0   0   0   0   0   0   0   0   0   0   0   0   0   0   0   0   0   0   0   0
  0   0   0   0   0   0   8 135 222 255 255 255 255 255 255 244  58   0   0   0   0   0   0   0
  0   0   0   0   0   0   0   0   0   0   0   0   0   0   0   0   0 255 255 255 255 255 255 167
  0   0   0   0   0   0   0 123 193 166 237 255 255 255 255 255 255 255 255 255
  0   0   0   0   0   0   0   0   0   0   0   0   0   0   0   0   0   0   0   0   0   0   0   0
  0   0   0   0   0   0 137 201 240 255 255 255 255 255 167   0   0   0   0   0   0   0   0   0
  0   0   0   0   0   0   0   0   0   0   0   0   0   0   0   0   0   0 224 255 255 255 255 255
255 211   0 193 172 255 255 255 255 255 255 255 255 255 255 255 255 255 255 255
  0   0   0   0   0   0   0   0   0   0   0   0   0   0   0   0   0   0   0   0   0   0   0   0
  0   0   0   0   0 107 177 231 255 255 255 255 255 206   0   0   0   0   0   0   0   0   0   0
  0   0   0   0   0   0   0   0   0   0   0   0   0   0   0   0   0   0   0   0 255 255 255 255
255 255 255 255 255 255 255 255 255 255 255 255 255 255 255 255 255 255 221  68
  0   0   0   0   0   0   0   0   0   0   0   0   0   0   0   0   0   0   0   0   0   0   0   0
  0   0   0   0 175 187 229 255 255 255 255 255 179   0   0   0   0   0   0   0   0   0   0   0
  0   0   0   0   0   0   0   0   0   0   0   0   0   0   0   0   0   0   0   0   0 255 255 255
255 255 255 255 255 255 255 255 255 255 255 255 255 255 255 255 255 175   0   0
  0   0   0   0   0   0   0   0   0   0   0   0   0   0   0   0   0   0   0   0   0   0   0   0
  0   0   0 120 192 212 240 255 255 255 255 227 118   0   0   0   0   0   0   0   0   0   0   0
  0   0   0   0   0   0   0   0   0   0   0   0   0   0   0   0   0   0   0   0   0   0  87 255
255 255 255 255 255 255 255 255 255 255 255 255 255 255 255 238 124   0   0   0
  0   0   0   0   0   0   0   0   0   0   0   0   0   0   0   0   0   0   0   0   0   0   0   0
  0   0  72 149 184 220 242 255 255 255 219 104   0   0   0   0   0   0   0   0   0   0   0   0
  0   0   0   0   0   0   0   0   0   0   0   0   0   0   0   0   0   0   0   0   0   0   0 193
255 255 255 255 255 255 255 255 255 255 255 255 255 255  78   0   0   0   0   0
  0   0   0   0   0   0   0   0   0   0   0   0   0   0   0   0   0   0   0   0   0   0   0   0
  0   0 128 154 219 238 255 255 255 255 158   0   0   0   0   0   0   0   0   0   0   0   0   0
  0   0   0   0   0   0   0   0   0   0   0   0   0   0   0   0   0   0   0   0   0   0   0   0
255 255 255 255 255 255 255 255 255 255 255 255 213   0   0   0   0   0   0   0
  0   0   0   0   0   0   0   0   0   0   0   0   0   0   0   0   0   0   0   0   0   0   0   0
  0 179 233 255 255 255 255 255 255 255 181   0   0   0   0   0   0   0   0   0   0   0   0   0
  0   0   0   0   0   0   0   0   0   0   0   0   0   0   0   0   0   0   0   0   0   0   0   0
255 255 255 255 255 255 255 255 255 255 213  88   0   0   0   0   0   0   0   0
  0   0   0   0   0   0   0   0   0   0   0   0   0   0   0   0   0   0   0   0   0   0   0  70
165 214 255 255 255 255 255 255 255 255 255 207   0   0   0   0   0   0   0   0   0   0   0   0
  0   0   0   0   0   0   0   0   0   0   0   0   0   0   0   0   0   0   0   0   0  30 218 255
255 255 255 255 255 255 255 255 255  97   0   0   0   0   0   0   0   0   0   0
101   0   0   0   0   0   0   0   0   0   0   0   0   0   0   0   0   0   0   0   0   0   0 183
213 255 255 255 255 255 255 255 255 255 255 255 255 255 211 189 173 183 152  49   0   0   0   0
  0   0   0   0   0   0   0   0   0   0   0   0   0   0   0   0   0   0   0   0 192 255 255 255
255 255 255 255 255 255 255 199   0   0   0   0   0   0   0   0   0   0   0   0
255 255 255 255 135   0   0   0   0   0   0   0   0   0   0   0   0   0   0   0   0 168 229 255
255 255 255 255 255 255 255 255 255 255 255 255 255 255 255 255 237 206 169 134 113  63   0   0
  0   0   0   0   0   0   0   0   0   0   0   0   0   0   0   0   0   0 221 255 255 255 255 255
255 255 255 255 255  83   0   0   0   0   0   0   0   0   0   0   0   0   0   0
255 255 255 255 255 255 255 255 255 255 228   0   0   0   0   0   0   0   0 185 255 255 255 255
255 255 255 255 255 255 255 255 255 255 255 255 255 255 255 255 216 171 140 114 104 106 104 108
112  53   0   0   0   0   0   0   0   0   0   0   0   0   0   0  78 193 255 255 255 255 255 255
255 255 255 162   0   0   0   0   0   0   0   0   0   0   0   0   0   0   0   0
255 255 255 255 255 255 255 255 255 255 255 255 255 255 255 255 255 242 212 255 255 255 255 255
255 255 255 255 255 255 255 255 255 255 253 244 255 255 255 222 170 123  66   0   0  84 116 124
130 119  91  52  63  33  51   0   0   0   0   0   0   0   0 160 255 255 255 255 255 255 255 255
227   0   0   0   0   0   0   0   0   0   0   0   0   0   0   0   0   0   0   0
236 255 255 255 255 255 255 255 255 255 255 255 255 255 255 255 255 255 255 255 255 255 255 255
255 255 255 255 237  78  90 106 171 167 163 151 177 163 186 144 110  72   0   0   0  20  77  93
 94  92 123 157 197 218 255 255 255 255 255 234 249 255 255 255 255 255 255 255 255 255 255 163
  0   0   0   0   0   0   0   0   0   0   0   0   0   0   0   0   0   0   0   0
  0   0   0 255 255 255 255 255 255 255 255 255 255 255 255 255 255 255 255 255 255 255 255 255
248 124   0   0   0   0   0   0   0   0   0   0   0   0   0   0   0   0   0   0   0   0   0   0
 41  35  91 149 203 250 255 255 255 255 255 255 255 255 255 255 255 255 255 255 255 255 183   0
  0   0   0   0   0   0   0   0   0   0   0   0   0   0   0   0   0   0   0   0
  0   0   0   0  53 255 255 255 255 255 255 255 255 255 255 255 255 255 255 255 255 255 255 185
  0   0   0   0   0   0   0   0   0   0   0   0   0   0   0   0   0   0   0   0  27   4  23  96
 92  91  92 126 182 229 255 255 255 255 255 255 255 255 255 255 255 255 255 255 255 169   0   0
  0   0   0   0   0   0   0   0   0   0   0   0   0   0   0   0   0   0   0   0
  0   0   0   0   0   0 179 255 255 255 255 255 255 255 255 255 255 255 255 255 255 255 213   0
  0   0   0   0   0   0   0   0   0   0   0   0   0   0   0   0   0   0   0   0   0   0   0  92
119  98 121 159 178 219 255 255 255 255 255 255 255 255 255 255 255 255 200 125   0   0   0   0
  0   0   0   0   0   0   0   0   0   0   0   0   0   0   0   0   0   0   0   0
  0   0   0   0   0   0   0 121 255 255 255 255 255 255 255 255 255 255 255 255 255 147   0   0
  0   0   0   0   0   0   0   0   0   0   0   0   0   0   0   0   0   0   0   0   0   0   0   0
 38  86 140 170 202 230 255 255 255 255 255 255 255 255 255 255 255 145   0   0   0   0   0   0
  0   0   0   0   0   0   0   0   0   0   0   0   0   0   0   0   0   0   0   0
  0   0   0   0   0   0   0   0   0 243 255 255 255 255 255 255 255 255 255 255 147   0   0   0
  0   0   0   0   0   0   0   0   0   0   0   0   0   0   0   0   0   0   0   0   0   0   0   0
  0  84 159 200 255 255 255 255 255 255 255 255 255 255 255 193   0   0   0   0   0   0   0   0
  0   0   0   0   0   0   0   0   0   0   0   0   0   0   0   0   0   0   0   0
  0   0   0   0   0   0   0   0   0   0 157 255 255 255 255 255 255 255 247 125   0   0   0   0
  0   0   0   0   0   0   0   0   0   0   0   0   0   0   0   0   0   0   0   0   0   0   0   0
  0 130 247 255 255 255 255 255 255 255 255 255 255 198   0   0   0   0   0   0   0   0   0   0
  0   0   0   0   0   0   0   0   0   0   0   0   0   0   0   0   0   0   0   0
255 153   0   0   0   0   0   0   0   0 161 249 255 255 255 255 255 246 111  30   0   0   0   0
  0   0   0   0   0   0   0   0   0   0   0   0   0   0   0   0   0   0   0   0   0   0   0   0
124 255 255 255 255 255 255 255 255 255 247 140   0   0   0   0   0   0   0   0   0   0   0   0
  0   0   0   0   0   0   0   0   0   0   0   0   0   0   0   0   0   0   0   0
255 255 255   0   0   0   0   0   0 142 216 255 255 255 255 255  97   0   0   0   0   0   0   0
  0   0   0   0   0   0   0   0   0   0   0   0   0   0   0   0   0   0   0   0   0   0  98 245
255 255 255 255 255 255 255 255 248  71   0   0   0   0   0   0   0   0   0   0   0   0   0   0
  0   0   0   0   0   0   0   0   0   0   0   0   0   0   0   0   0   0   0   0
255 255 255 255 255 255 169   0 124 217 241 255 255 241 189 161   0   0   0   0   0   0   0   0
  0   0   0   0   0   0   0   0   0   0   0   0   0   0   0   0   0   0   0   0   0 131 244 255
255 255 255 255 255 255 255 132   0   0   0   0   0   0   0   0   0   0   0   0   0   0   0   0
  0   0   0   0   0   0   0   0   0   0   0   0   0   0   0   0   0   0   0   0
255 255 255 255 255 255 255 255 255 255 255 238 205 132   9   0   0   0   0   0   0   0   0   0
  0   0   0   0   0   0   0   0   0   0   0   0   0   0   0   0   0   0   0  46 218 255 255 255
255 255 255 255 255  81   0   0   0   0   0   0   0   0   0   0   0   0   0   0   0   0   0   0
  0   0   0   0   0   0   0   0   0   0   0   0   0   0   0   0   0   0   0   0
  0 255 255 255 255 255 255 255 255 255 255 219  83   0   0   0   0   0   0   0   0   0   0   0
  0   0   0   0   0   0   0   0   0   0   0   0   0   0   0   0   0   0 218 255 255 255 255 255
255 255 255 155   0   0   0   0   0   0   0   0   0   0   0   0   0   0   0   0   0   0   0   0
  0   0   0   0   0   0   0   0   0   0   0   0   0   0   0   0   0   0   0   0
  0   0 247 255 255 255 255 255 255 255 255 209  72   0   0   0   0   0   0   0   0   0   0   0
  0   0   0   0   0   0   0   0   0   0   0   0   0   0   0   0 231 255 255 255 255 255 255 255
255 227   0   0   0   0   0   0   0   0   0   0   0   0   0   0   0   0   0   0   0   0   0   0
  0   0   0   0   0   0   0   0   0   0   0   0   0   0   0   0   0   0   0   0
  0   0   0 219 255 255 255 255 255 255 255 255 212   0   0   0   0   0   0   0   0   0   0   0
  0   0   0   0   0   0   0   0   0   0   0   0   0  99 255 255 255 255 255 255 255 255 255 255
166   0   0   0   0   0   0   0   0   0   0   0   0   0   0   0   0   0   0   0   0   0   0   0
  0   0   0   0   0   0   0   0   0   0   0   0   0   0   0   0   0   0   0   0
  0   0   0   0 137 255 255 255 255 255 255 255 255 255 105   0   0   0   0   0   0   0   0   0
  0   0   0   0   0   0   0   0   0   0  64 201 255 255 255 255 255 255 255 255 255 255 255 168
  0   0   0   0   0   0   0   0   0   0   0   0   0   0   0   0   0   0   0   0   0   0   0   0
  0   0   0   0   0   0   0   0   0   0   0   0   0   0   0   0   0   0   0   0
  0   0   0   0   0   0 255 255 255 255 255 255 255 255 255 255   0   0   0   0   0   0   0   0
  0   0   0   0   0   0 158 238 255 255 255 255 255 255 255 255 255 255 255 255 255 255 116   0
  0   0   0   0   0   0   0   0   0   0   0   0   0   0   0   0   0   0   0   0   0   0   0   0
  0   0   0   0   0   0   0   0   0   0   0   0   0   0   0   0   0   0   0   0
  0   0   0   0   0   0   0 239 255 255 255 255 255 255 255 255 255   0   0   0   0   0   0   0
  0 122 238 255 255 255 255 255 255 255 255 255 255 255 255 255 255 255 255 255 184   0   0   0
  0   0   0   0   0   0   0   0   0   0   0   0   0   0   0   0   0   0   0   0   0   0   0   0
  0   0   0   0   0   0   0   0   0   0   0   0   0   0   0   0   0   0   0   0
  0   0   0   0   0   0   0   0 148 255 255 255 255 255 255 255 255 255 255 228 195 218 255 255
255 255 255 255 255 255 255 255 255 255 255 255 255 255 255 255 255 255 255 236  31   0   0   0
  0   0   0   0   0   0   0   0   0   0   0   0   0   0   0   0   0   0   0   0   0   0   0   0
  0   0   0   0   0   0   0   0   0   0   0   0   0   0   0   0   0   0   0   0
  0   0   0   0   0   0   0   0   0   0 255 255 255 255 255 255 255 255 255 255 255 255 255 255
255 255 255 255 255 255 255 255 255 255 255 255 255 255 255 255 255 246  22   0   0   0   0   0
  0   0   0   0   0   0   0   0   0   0   0   0   0   0   0   0   0   0   0   0   0   0   0   0
  0   0   0   0   0   0   0   0   0   0   0   0   0   0   0   0   0   0   0   0
  0   0   0   0   0   0   0   0   0   0   0 224 255 255 255 255 255 255 255 255 255 255 255 255
255 255 255 255 255 255 255 255 255 255 255 255 255 255 255 255 157   0   0   0   0   0   0   0
  0   0   0   0   0   0   0   0   0   0   0   0   0   0   0   0   0   0   0   0   0   0   0   0
  0   0   0   0   0   0   0   0   0   0   0   0   0   0   0   0   0   0   0   0
  0   0   0   0   0   0   0   0   0   0   0   0   0 255 255 255 255 255 255 255 255 255 255 255
255 255 255 255 255 255 255 255 255 255 255 255 255 255 194   0   0   0   0   0   0   0   0   0
  0   0   0   0   0   0   0   0   0   0   0   0   0   0   0   0   0   0   0   0   0   0   0   0
  0   0   0   0   0   0   0   0   0   0   0   0   0   0   0   0   0   0   0   0
  0   0   0   0   0   0   0   0   0   0   0   0   0   0   0 255 255 255 255 255 255 255 255 255
255 255 255 255 255 255 255 255 255 255 255 182 154   0   0   0   0   0   0   0   0   0   0   0
  0   0   0   0   0   0   0   0   0   0   0   0   0   0   0   0   0   0   0   0   0   0   0   0
  0   0   0   0   0   0   0   0   0   0   0   0   0   0   0   0   0   0   0   0
  0   0   0   0   0   0   0   0   0   0   0   0   0   0   0   0 216 255 255 255 255 255 255 255
255 255 255 255 255 255 255 255 255 204  88   0   0   0   0   0   0   0   0   0   0   0   0   0
  0   0   0   0   0   0   0   0   0   0   0   0   0   0   0   0   0   0   0   0   0   0   0  75
113  78   0   0   0   0   0   0   0   0   0   0   0   0   0   0   0   0   0   0
  0   0   0   0   0   0   0   0   0   0   0   0   0   0   0   0  53 255 255 255 255 255 255 255
255 255 255 255 255 255 255 255 255 191   0   0   0   0   0   0   0   0   0   0   0   0   0   0
  0   0   0   0   0   0   0   0   0   0   0   0   0   0   0   0   0   0   0   0   0   0   0  82
151 154 132   0   0   0   0   0   0   0   0   0   0   0   0   0   0   0   0   0
  0   0   0   0   0   0   0   0   0   0   0   0   0   0   0   0 185 255 255 255 255 255 255 255
255 255 255 255 255 255 255 255 255 255 162   0   0   0   0   0   0   0   0   0   0   0   0   0
  0   0   0   0   0   0   0   0   0   0   0   0   0   0   0   0   0   0   0   0   0   0   0   0
121 145 129  26   0   0   0   0   0   0   0   0   0   0   0   0   0   0   0   0
